<svg width="33" height="33" viewBox="0 0 33 33" fill="none" xmlns="http://www.w3.org/2000/svg">
<path d="M16.3932 2.9509C20.7732 2.9509 21.2919 2.9701 23.0145 3.04691C24.6154 3.11733 25.4798 3.38617 26.0562 3.61021C26.8182 3.90466 27.3689 4.26312 27.9388 4.83282C28.5151 5.40891 28.8673 5.953 29.1619 6.71473C29.386 7.29083 29.655 8.16138 29.7254 9.75524C29.8023 11.4835 29.8215 12.002 29.8215 16.374C29.8215 20.7523 29.8023 21.2708 29.7254 22.9927C29.655 24.5929 29.386 25.4571 29.1619 26.0332C28.8673 26.7949 28.5087 27.3454 27.9388 27.9151C27.3625 28.4912 26.8182 28.8433 26.0562 29.1377C25.4798 29.3618 24.609 29.6306 23.0145 29.701C21.2855 29.7778 20.7668 29.797 16.3932 29.797C12.0131 29.797 11.4944 29.7778 9.77187 29.701C8.17097 29.6306 7.30649 29.3618 6.73016 29.1377C5.96814 28.8433 5.41743 28.4848 4.84751 27.9151C4.27119 27.339 3.91899 26.7949 3.62443 26.0332C3.4003 25.4571 3.13135 24.5865 3.06091 22.9927C2.98407 21.2644 2.96486 20.7459 2.96486 16.374C2.96486 11.9956 2.98407 11.4771 3.06091 9.75524C3.13135 8.15497 3.4003 7.29083 3.62443 6.71473C3.91899 5.953 4.27759 5.40251 4.84751 4.83282C5.42383 4.25672 5.96814 3.90466 6.73016 3.61021C7.30649 3.38617 8.17737 3.11733 9.77187 3.04691C11.4944 2.9701 12.0131 2.9509 16.3932 2.9509ZM16.3932 0C11.9427 0 11.3856 0.0192032 9.63739 0.0960162C7.89562 0.172829 6.69815 0.454477 5.66077 0.857745C4.57856 1.28022 3.66285 1.83711 2.75354 2.75246C1.83783 3.66142 1.28072 4.57677 0.85808 5.65215C0.454654 6.69553 0.172897 7.88613 0.0960537 9.62722C0.0192107 11.3811 0 11.938 0 16.3868C0 20.8355 0.0192107 21.3924 0.0960537 23.1399C0.172897 24.881 0.454654 26.078 0.85808 27.115C1.28072 28.1968 1.83783 29.1121 2.75354 30.0211C3.66285 30.93 4.57856 31.4933 5.65436 31.9094C6.69815 32.3126 7.88921 32.5943 9.63099 32.6711C11.3792 32.7479 11.9363 32.7671 16.3868 32.7671C20.8373 32.7671 21.3944 32.7479 23.1425 32.6711C24.8843 32.5943 26.0818 32.3126 27.1192 31.9094C28.195 31.4933 29.1107 30.93 30.02 30.0211C30.9293 29.1121 31.4928 28.1968 31.909 27.1214C32.3125 26.078 32.5942 24.8874 32.6711 23.1463C32.7479 21.3988 32.7671 20.8419 32.7671 16.3932C32.7671 11.9444 32.7479 11.3875 32.6711 9.64003C32.5942 7.89893 32.3125 6.70193 31.909 5.66496C31.5056 4.57677 30.9485 3.66142 30.0328 2.75246C29.1235 1.84351 28.2078 1.28022 27.132 0.864146C26.0882 0.460878 24.8971 0.17923 23.1553 0.102417C21.4008 0.0192032 20.8437 0 16.3932 0Z" fill="white"/>
<path d="M16.3832 8.19177C11.8606 8.19177 8.19141 11.8609 8.19141 16.3836C8.19141 20.9062 11.8606 24.5753 16.3832 24.5753C20.9058 24.5753 24.575 20.9062 24.575 16.3836C24.575 11.8609 20.9058 8.19177 16.3832 8.19177ZM16.3832 21.6973C13.4491 21.6973 11.0694 19.3176 11.0694 16.3836C11.0694 13.4495 13.4491 11.0698 16.3832 11.0698C19.3173 11.0698 21.6969 13.4495 21.6969 16.3836C21.6969 19.3176 19.3173 21.6973 16.3832 21.6973Z" fill="white"/>
<path d="M27.3059 7.50925C27.3059 8.64329 26.3853 9.55719 25.2579 9.55719C24.1239 9.55719 23.21 8.63662 23.21 7.50925C23.21 6.37521 24.1305 5.4613 25.2579 5.4613C26.3853 5.4613 27.3059 6.38188 27.3059 7.50925Z" fill="white"/>
</svg>
