<svg width="33" height="33" viewBox="0 0 33 33" fill="none" xmlns="http://www.w3.org/2000/svg">
<path d="M30.5745 0H2.65205C1.31448 0 0.23291 1.05597 0.23291 2.36154V30.3992C0.23291 31.7048 1.31448 32.7671 2.65205 32.7671H30.5745C31.9121 32.7671 33 31.7048 33 30.4056V2.36154C33 1.05597 31.9121 0 30.5745 0ZM9.95425 27.9225H5.09038V12.2813H9.95425V27.9225ZM7.52232 10.1501C5.96076 10.1501 4.69999 8.88936 4.69999 7.3342C4.69999 5.77905 5.96076 4.51828 7.52232 4.51828C9.07747 4.51828 10.3382 5.77905 10.3382 7.3342C10.3382 8.88296 9.07747 10.1501 7.52232 10.1501ZM28.1554 27.9225H23.2979V20.3195C23.2979 18.5083 23.2659 16.1724 20.77 16.1724C18.242 16.1724 17.858 18.1499 17.858 20.1915V27.9225H13.007V12.2813H17.666V14.4188H17.73C18.3764 13.19 19.9636 11.8909 22.3251 11.8909C27.2466 11.8909 28.1554 15.1292 28.1554 19.3403V27.9225Z" fill="white"/>
</svg>
